<svg xmlns="http://www.w3.org/2000/svg" version="1.1" xmlns:xlink="http://www.w3.org/1999/xlink" xmlns:svgjs="http://svgjs.com/svgjs" width="400" height="560" preserveAspectRatio="none" viewBox="0 0 400 560"><g mask="url(&quot;#SvgjsMask5396&quot;)" fill="none"><rect width="400" height="560" x="0" y="0" fill="url(#SvgjsRadialGradient5397)"></rect><path d="M0 0L111.8 0L0 78.91z" fill="rgba(255, 255, 255, .1)"></path><path d="M0 78.91L111.8 0L269.52 0L0 285.35z" fill="rgba(255, 255, 255, .075)"></path><path d="M0 285.35L269.52 0L319.15999999999997 0L0 350.13z" fill="rgba(255, 255, 255, .05)"></path><path d="M0 350.13L319.15999999999997 0L375.01 0L0 354.58z" fill="rgba(255, 255, 255, .025)"></path><path d="M400 560L295.88 560L400 382.97z" fill="rgba(0, 0, 0, .1)"></path><path d="M400 382.97L295.88 560L186.91 560L400 315.35z" fill="rgba(0, 0, 0, .075)"></path><path d="M400 315.35L186.91 560L75.88 560L400 246.42000000000002z" fill="rgba(0, 0, 0, .05)"></path><path d="M400 246.41999999999996L75.88 560L72.91 560L400 90.43999999999997z" fill="rgba(0, 0, 0, .025)"></path></g><defs><mask id="SvgjsMask5396"><rect width="400" height="560" fill="#ffffff"></rect></mask><radialGradient cx="0%" cy="50%" r="488.26" gradientUnits="userSpaceOnUse" id="SvgjsRadialGradient5397"><stop stop-color="rgba(246, 246, 246, 1)" offset="0"></stop><stop stop-color="rgba(232, 232, 232, 1)" offset="1"></stop></radialGradient></defs></svg>